<?xml version="1.0" standalone="no"?>
<!DOCTYPE svg PUBLIC "-//W3C//DTD SVG 20010904//EN"
 "http://www.w3.org/TR/2001/REC-SVG-20010904/DTD/svg10.dtd">
<svg version="1.0" xmlns="http://www.w3.org/2000/svg"
 width="260.000000pt" height="260.000000pt" viewBox="0 0 260.000000 260.000000"
 preserveAspectRatio="xMidYMid meet">
<metadata>
Created by potrace 1.11, written by Peter Selinger 2001-2013
</metadata>
<g transform="translate(0.000000,260.000000) scale(0.100000,-0.100000)"
fill="#000000" stroke="none">
<path d="M0 1300 l0 -1300 1300 0 1300 0 0 1300 0 1300 -1300 0 -1300 0 0
-1300z m1480 1084 c43 -37 122 -204 213 -454 41 -113 120 -322 175 -465 248
-648 314 -949 243 -1111 -48 -107 -125 -149 -271 -147 -108 1 -189 22 -316 82
-163 78 -306 184 -430 318 l-50 55 -21 -83 c-43 -172 -89 -262 -136 -267 -104
-12 -284 222 -398 517 -91 235 -185 643 -160 697 26 57 102 14 121 -68 22 -93
110 -356 164 -492 102 -253 191 -406 236 -406 48 0 79 233 45 344 -24 80 -20
140 13 176 25 28 30 30 79 24 l53 -7 49 -102 c123 -258 313 -464 525 -570 151
-75 268 -82 327 -19 22 24 24 32 22 127 -6 247 -80 516 -275 1007 -133 334
-182 431 -293 579 -82 109 -85 116 -85 167 0 45 4 57 28 79 24 23 66 42 99 44
6 1 26 -11 43 -25z"/>
</g>
</svg>
